<?xml version="1.0" standalone="no"?>
<!DOCTYPE svg PUBLIC "-//W3C//DTD SVG 20010904//EN"
 "http://www.w3.org/TR/2001/REC-SVG-20010904/DTD/svg10.dtd">
<svg version="1.0" xmlns="http://www.w3.org/2000/svg"
 width="500.000000pt" height="500.000000pt" viewBox="0 0 500.000000 500.000000"
 preserveAspectRatio="xMidYMid meet">
<metadata>
Created by potrace 1.14, written by Peter Selinger 2001-2017
</metadata>
<g transform="translate(0.000000,500.000000) scale(0.100000,-0.100000)"
fill="#000000" stroke="none">
<path d="M3214 4087 l-91 -162 -74 -1 c-92 0 -144 -10 -219 -39 -130 -51 -218
-133 -300 -280 -19 -35 -51 -91 -71 -126 -20 -35 -49 -86 -64 -114 -15 -27
-54 -95 -85 -150 -31 -55 -70 -122 -85 -150 -91 -166 -391 -696 -411 -727 -13
-21 -24 -40 -24 -42 0 -3 -29 -55 -65 -117 -36 -61 -65 -113 -65 -114 0 -2
-33 -61 -73 -132 -114 -198 -122 -215 -141 -268 -22 -65 -31 -204 -17 -280 6
-33 29 -96 50 -140 167 -336 616 -404 883 -133 37 37 178 253 178 272 0 3 20
37 43 78 24 40 97 168 162 283 149 266 151 270 253 450 47 83 96 170 110 195
14 25 102 180 195 345 238 421 235 416 254 476 13 38 17 87 17 169 0 100 -4
124 -27 183 -15 38 -42 92 -61 120 l-35 52 29 50 c125 219 158 281 154 287 -2
3 -50 32 -107 62 -56 31 -126 69 -155 86 -29 16 -56 30 -60 30 -4 0 -48 -74
-98 -163z"/>
</g>
</svg>
